# xmcd
#
# Track frame offsets: 
#        150
#        18190
#        35393
#        48416
#        71844
#        91331
#        108840
#        121718
#        138887
#        155252
#        170145
#        189484
#
# Disc length: 2845 seconds
#
# Revision: 1
# Processed by: cddbd v1.5.2PL0 Copyright (c) Steve Scherf et al.
# Submitted via: ExactAudioCopy v0.95b4
#
DISCID=940b1b0c
DTITLE=Alabama - The Last Stand
DYEAR=2007
DGENRE=Country
TTITLE0=Here We Are
TTITLE1=Old Flame
TTITLE2=High Cotton
TTITLE3=If You're Gonna Play In Texas (You Gotta Have A Fiddle In The 
TTITLE3=Band)
TTITLE4=The Cheap Seats
TTITLE5=Pass It On Down
TTITLE6=The Closer You Get
TTITLE7=Give Me One More Shot
TTITLE8=Feels So Right
TTITLE9=Jukebox In My Mind
TTITLE10=Forty Hour Week (For A Livin')
TTITLE11=The Fans
EXTD=
EXTT0=
EXTT1=
EXTT2=
EXTT3=
EXTT4=
EXTT5=
EXTT6=
EXTT7=
EXTT8=
EXTT9=
EXTT10=
EXTT11=
PLAYORDER=
